# xmcd CD database file
#
# Track frame offsets:
#	150
#	14267
#	35910
#
# Disc length: 664 seconds
#
# Revision: 4
# Processed by: cddbd v1.5.1PL0 Copyright (c) Steve Scherf et al.
# Submitted via: CDex 1.51
#
DISCID=1f029603
DTITLE=カントリー娘。に紺野と藤本（モーニング娘。） - シャイニング 愛しき貴方
DYEAR=2004
DGENRE=JPop
TTITLE0=シャイニング 愛しき貴方
TTITLE1=DON'T STOP 恋愛中 (2004 Version)
TTITLE2=シャイニング 愛しき貴方 (Instrumental)
EXTD=YEAR: 2004
EXTT0=
EXTT1=
EXTT2=
PLAYORDER=
